<svg xmlns="http://www.w3.org/2000/svg" width="375" viewBox="0 0 375 375" height="375" version="1.0"><defs><clipPath id="a"><path d="M 39.117188 33.230469 L 336.117188 33.230469 L 336.117188 330.230469 L 39.117188 330.230469 Z M 39.117188 33.230469"/></clipPath><clipPath id="b"><path d="M 83.136719 83.136719 L 291.636719 83.136719 L 291.636719 291.636719 L 83.136719 291.636719 Z M 83.136719 83.136719"/></clipPath><clipPath id="c"><path d="M 87.128906 87.128906 L 288.128906 87.128906 L 288.128906 288.128906 L 87.128906 288.128906 Z M 87.128906 87.128906"/></clipPath><clipPath id="d"><path d="M 130.539062 183 L 180 183 L 180 258.652344 L 130.539062 258.652344 Z M 130.539062 183"/></clipPath><clipPath id="e"><path d="M 195 183 L 244.539062 183 L 244.539062 258.652344 L 195 258.652344 Z M 195 183"/></clipPath><clipPath id="f"><path d="M 130.539062 183 L 180 183 L 180 258.652344 L 130.539062 258.652344 Z M 130.539062 183"/></clipPath><clipPath id="g"><path d="M 152 116.308594 L 222 116.308594 L 222 219.808594 L 152 219.808594 Z M 152 116.308594"/></clipPath></defs><g clip-path="url(#a)"><path fill="#FFDF4F" d="M 187.617188 330.230469 C 105.578125 330.230469 39.117188 263.3125 39.117188 181.730469 C 39.117188 100.144531 105.578125 33.230469 187.617188 33.230469 C 269.660156 33.230469 336.117188 99.6875 336.117188 181.730469 C 336.117188 263.769531 269.203125 330.230469 187.617188 330.230469 Z M 187.617188 42.394531 C 110.617188 42.394531 48.285156 104.730469 48.285156 181.730469 C 48.285156 258.730469 110.617188 321.0625 187.617188 321.0625 C 264.617188 321.0625 326.953125 258.730469 326.953125 181.730469 C 326.953125 104.730469 264.160156 42.394531 187.617188 42.394531 Z M 187.617188 42.394531"/></g><g clip-path="url(#b)"><path fill="#FFDF4F" d="M 187.386719 291.636719 C 129.789062 291.636719 83.136719 244.660156 83.136719 187.386719 C 83.136719 130.113281 129.789062 83.136719 187.386719 83.136719 C 244.980469 83.136719 291.636719 129.789062 291.636719 187.386719 C 291.636719 244.980469 244.660156 291.636719 187.386719 291.636719 Z M 187.386719 89.570312 C 133.328125 89.570312 89.570312 133.328125 89.570312 187.386719 C 89.570312 241.441406 133.328125 285.199219 187.386719 285.199219 C 241.441406 285.199219 285.199219 241.441406 285.199219 187.386719 C 285.199219 133.328125 241.117188 89.570312 187.386719 89.570312 Z M 187.386719 89.570312"/></g><g clip-path="url(#c)"><path fill="#FFDF4F" d="M 288.128906 187.628906 C 288.128906 189.273438 288.089844 190.917969 288.007812 192.558594 C 287.925781 194.203125 287.804688 195.84375 287.644531 197.480469 C 287.484375 199.117188 287.28125 200.746094 287.039062 202.375 C 286.800781 204 286.519531 205.621094 286.195312 207.234375 C 285.875 208.847656 285.515625 210.453125 285.117188 212.046875 C 284.714844 213.644531 284.277344 215.226562 283.800781 216.800781 C 283.324219 218.375 282.808594 219.9375 282.253906 221.484375 C 281.699219 223.035156 281.109375 224.570312 280.476562 226.089844 C 279.847656 227.609375 279.183594 229.109375 278.480469 230.597656 C 277.777344 232.085938 277.035156 233.554688 276.261719 235.003906 C 275.484375 236.453125 274.675781 237.886719 273.828125 239.296875 C 272.984375 240.707031 272.105469 242.09375 271.191406 243.464844 C 270.277344 244.832031 269.332031 246.175781 268.351562 247.496094 C 267.371094 248.816406 266.359375 250.113281 265.316406 251.386719 C 264.273438 252.65625 263.199219 253.902344 262.09375 255.121094 C 260.988281 256.339844 259.855469 257.53125 258.691406 258.691406 C 257.53125 259.855469 256.339844 260.988281 255.121094 262.09375 C 253.902344 263.199219 252.65625 264.273438 251.386719 265.316406 C 250.113281 266.359375 248.816406 267.371094 247.496094 268.351562 C 246.175781 269.332031 244.832031 270.277344 243.464844 271.191406 C 242.09375 272.105469 240.707031 272.984375 239.296875 273.828125 C 237.886719 274.675781 236.453125 275.484375 235.003906 276.261719 C 233.554688 277.035156 232.085938 277.777344 230.597656 278.480469 C 229.109375 279.183594 227.609375 279.847656 226.089844 280.476562 C 224.570312 281.109375 223.035156 281.699219 221.484375 282.253906 C 219.9375 282.808594 218.375 283.324219 216.800781 283.800781 C 215.226562 284.277344 213.644531 284.714844 212.046875 285.117188 C 210.453125 285.515625 208.847656 285.875 207.234375 286.195312 C 205.621094 286.519531 204 286.800781 202.375 287.039062 C 200.746094 287.28125 199.117188 287.484375 197.480469 287.644531 C 195.84375 287.804688 194.203125 287.925781 192.558594 288.007812 C 190.917969 288.089844 189.273438 288.128906 187.628906 288.128906 C 185.984375 288.128906 184.339844 288.089844 182.695312 288.007812 C 181.054688 287.925781 179.414062 287.804688 177.777344 287.644531 C 176.140625 287.484375 174.507812 287.28125 172.882812 287.039062 C 171.253906 286.800781 169.636719 286.519531 168.023438 286.195312 C 166.410156 285.875 164.804688 285.515625 163.207031 285.117188 C 161.613281 284.714844 160.027344 284.277344 158.453125 283.800781 C 156.878906 283.324219 155.320312 282.808594 153.769531 282.253906 C 152.222656 281.699219 150.6875 281.109375 149.167969 280.476562 C 147.648438 279.847656 146.144531 279.183594 144.660156 278.480469 C 143.171875 277.777344 141.703125 277.035156 140.253906 276.261719 C 138.800781 275.484375 137.371094 274.675781 135.960938 273.828125 C 134.550781 272.984375 133.160156 272.105469 131.792969 271.191406 C 130.425781 270.277344 129.082031 269.332031 127.761719 268.351562 C 126.4375 267.371094 125.144531 266.359375 123.871094 265.316406 C 122.601562 264.273438 121.355469 263.199219 120.136719 262.09375 C 118.917969 260.988281 117.726562 259.855469 116.5625 258.691406 C 115.402344 257.53125 114.265625 256.339844 113.164062 255.121094 C 112.058594 253.902344 110.984375 252.65625 109.941406 251.386719 C 108.898438 250.113281 107.886719 248.816406 106.90625 247.496094 C 105.925781 246.175781 104.980469 244.832031 104.066406 243.464844 C 103.152344 242.09375 102.273438 240.707031 101.425781 239.296875 C 100.582031 237.886719 99.769531 236.453125 98.996094 235.003906 C 98.21875 233.554688 97.480469 232.085938 96.777344 230.597656 C 96.074219 229.109375 95.40625 227.609375 94.777344 226.089844 C 94.148438 224.570312 93.558594 223.035156 93.003906 221.484375 C 92.449219 219.9375 91.933594 218.375 91.457031 216.800781 C 90.976562 215.226562 90.539062 213.644531 90.140625 212.046875 C 89.742188 210.453125 89.378906 208.847656 89.058594 207.234375 C 88.738281 205.621094 88.457031 204 88.214844 202.375 C 87.976562 200.746094 87.773438 199.117188 87.613281 197.480469 C 87.449219 195.84375 87.328125 194.203125 87.25 192.558594 C 87.167969 190.917969 87.128906 189.273438 87.128906 187.628906 C 87.128906 185.984375 87.167969 184.339844 87.25 182.695312 C 87.328125 181.054688 87.449219 179.414062 87.613281 177.777344 C 87.773438 176.140625 87.976562 174.507812 88.214844 172.882812 C 88.457031 171.253906 88.738281 169.636719 89.058594 168.023438 C 89.378906 166.410156 89.742188 164.804688 90.140625 163.207031 C 90.539062 161.613281 90.976562 160.027344 91.457031 158.453125 C 91.933594 156.878906 92.449219 155.320312 93.003906 153.769531 C 93.558594 152.222656 94.148438 150.6875 94.777344 149.167969 C 95.40625 147.648438 96.074219 146.144531 96.777344 144.660156 C 97.480469 143.171875 98.21875 141.703125 98.996094 140.253906 C 99.769531 138.800781 100.582031 137.371094 101.425781 135.960938 C 102.273438 134.550781 103.152344 133.160156 104.066406 131.792969 C 104.980469 130.425781 105.925781 129.082031 106.90625 127.761719 C 107.886719 126.4375 108.898438 125.144531 109.941406 123.871094 C 110.984375 122.601562 112.058594 121.355469 113.164062 120.136719 C 114.265625 118.917969 115.402344 117.726562 116.5625 116.5625 C 117.726562 115.402344 118.917969 114.265625 120.136719 113.164062 C 121.355469 112.058594 122.601562 110.984375 123.871094 109.941406 C 125.144531 108.898438 126.4375 107.886719 127.761719 106.90625 C 129.082031 105.925781 130.425781 104.980469 131.792969 104.066406 C 133.160156 103.152344 134.550781 102.273438 135.960938 101.425781 C 137.371094 100.582031 138.800781 99.769531 140.253906 98.996094 C 141.703125 98.21875 143.171875 97.480469 144.660156 96.777344 C 146.144531 96.074219 147.648438 95.40625 149.167969 94.777344 C 150.6875 94.148438 152.222656 93.558594 153.769531 93.003906 C 155.320312 92.449219 156.878906 91.933594 158.453125 91.457031 C 160.027344 90.976562 161.613281 90.539062 163.207031 90.140625 C 164.804688 89.742188 166.410156 89.378906 168.023438 89.058594 C 169.636719 88.738281 171.253906 88.457031 172.882812 88.214844 C 174.507812 87.976562 176.140625 87.773438 177.777344 87.613281 C 179.414062 87.449219 181.054688 87.328125 182.695312 87.25 C 184.339844 87.167969 185.984375 87.128906 187.628906 87.128906 C 189.273438 87.128906 190.917969 87.167969 192.558594 87.25 C 194.203125 87.328125 195.84375 87.449219 197.480469 87.613281 C 199.117188 87.773438 200.746094 87.976562 202.375 88.214844 C 204 88.457031 205.621094 88.738281 207.234375 89.058594 C 208.847656 89.378906 210.453125 89.742188 212.046875 90.140625 C 213.644531 90.539062 215.226562 90.976562 216.800781 91.457031 C 218.375 91.933594 219.9375 92.449219 221.484375 93.003906 C 223.035156 93.558594 224.570312 94.148438 226.089844 94.777344 C 227.609375 95.40625 229.109375 96.074219 230.597656 96.777344 C 232.085938 97.480469 233.554688 98.21875 235.003906 98.996094 C 236.453125 99.769531 237.886719 100.582031 239.296875 101.425781 C 240.707031 102.273438 242.09375 103.152344 243.464844 104.066406 C 244.832031 104.980469 246.175781 105.925781 247.496094 106.90625 C 248.816406 107.886719 250.113281 108.898438 251.386719 109.941406 C 252.65625 110.984375 253.902344 112.058594 255.121094 113.164062 C 256.339844 114.265625 257.53125 115.402344 258.691406 116.5625 C 259.855469 117.726562 260.988281 118.917969 262.09375 120.136719 C 263.199219 121.355469 264.273438 122.601562 265.316406 123.871094 C 266.359375 125.144531 267.371094 126.4375 268.351562 127.761719 C 269.332031 129.082031 270.277344 130.425781 271.191406 131.792969 C 272.105469 133.160156 272.984375 134.550781 273.828125 135.960938 C 274.675781 137.371094 275.484375 138.800781 276.261719 140.253906 C 277.035156 141.703125 277.777344 143.171875 278.480469 144.660156 C 279.183594 146.144531 279.847656 147.648438 280.476562 149.167969 C 281.109375 150.6875 281.699219 152.222656 282.253906 153.769531 C 282.808594 155.320312 283.324219 156.878906 283.800781 158.453125 C 284.277344 160.027344 284.714844 161.613281 285.117188 163.207031 C 285.515625 164.804688 285.875 166.410156 286.195312 168.023438 C 286.519531 169.636719 286.800781 171.253906 287.039062 172.882812 C 287.28125 174.507812 287.484375 176.140625 287.644531 177.777344 C 287.804688 179.414062 287.925781 181.054688 288.007812 182.695312 C 288.089844 184.339844 288.128906 185.984375 288.128906 187.628906 Z M 288.128906 187.628906"/></g><g clip-path="url(#d)"><path fill="#032662" d="M 138.214844 187.492188 C 138.832031 191.054688 140.105469 198.035156 141.175781 203.851562 L 141.171875 203.847656 C 141.566406 213.171875 155.796875 221.023438 155.796875 221.023438 C 155.796875 221.023438 152.925781 218.769531 147.71875 214.355469 C 144.480469 211.609375 141.65625 205.757812 141.1875 203.898438 C 140.699219 200.867188 144.4375 199.820312 147.941406 203.683594 C 153.171875 209.460938 177.382812 226.285156 177.117188 233.714844 C 176.824219 241.957031 179.292969 258.597656 179.292969 258.597656 L 157.410156 258.597656 L 159.375 239.007812 C 159.375 239.007812 139.980469 224.878906 136.445312 220.761719 C 132.90625 216.636719 131.152344 191.316406 130.847656 187.492188 C 130.535156 183.667969 137.03125 180.71875 138.214844 187.492188"/></g><g clip-path="url(#e)"><path fill="#032662" d="M 236.863281 187.894531 C 236.242188 191.457031 234.972656 198.4375 233.902344 204.253906 L 233.90625 204.25 C 233.507812 213.570312 219.277344 221.425781 219.277344 221.425781 C 219.277344 221.425781 222.152344 219.171875 227.355469 214.757812 C 230.597656 212.011719 233.417969 206.15625 233.890625 204.300781 C 234.378906 201.269531 230.636719 200.21875 227.136719 204.085938 C 221.90625 209.863281 197.691406 226.6875 197.960938 234.113281 C 198.253906 242.355469 195.410156 258.597656 195.410156 258.597656 L 216.921875 258.597656 L 215.699219 239.410156 C 215.699219 239.410156 235.09375 225.28125 238.632812 221.160156 C 242.167969 217.039062 243.921875 191.71875 244.230469 187.894531 C 244.539062 184.066406 238.042969 181.121094 236.863281 187.894531"/></g><g clip-path="url(#f)"><path fill="#032662" d="M 179.292969 258.597656 L 157.410156 258.597656 L 159.375 239.007812 C 159.375 239.007812 139.980469 224.878906 136.445312 220.761719 C 132.90625 216.636719 131.152344 191.316406 130.847656 187.492188 C 130.839844 187.40625 130.835938 187.316406 130.835938 187.230469 C 130.835938 185.175781 132.757812 183.445312 134.664062 183.445312 C 136.1875 183.445312 137.703125 184.554688 138.214844 187.492188 C 138.832031 191.054688 140.105469 198.035156 141.175781 203.851562 L 141.171875 203.847656 C 141.566406 213.171875 155.796875 221.023438 155.796875 221.023438 C 155.796875 221.023438 152.925781 218.769531 147.71875 214.355469 C 144.480469 211.609375 141.65625 205.757812 141.1875 203.898438 C 141.160156 203.71875 141.144531 203.542969 141.144531 203.378906 C 141.144531 202.027344 142.078125 201.183594 143.433594 201.183594 C 144.703125 201.183594 146.347656 201.925781 147.941406 203.683594 C 153.140625 209.429688 177.113281 226.097656 177.117188 233.585938 C 177.117188 233.628906 177.117188 233.671875 177.117188 233.714844 C 177.101562 234.175781 177.09375 234.664062 177.09375 235.175781 C 177.09375 243.769531 179.292969 258.597656 179.292969 258.597656"/></g><g clip-path="url(#g)"><path fill="#032662" d="M 217.546875 169.765625 C 199.507812 180.035156 187.796875 191.757812 183.382812 204.089844 C 182.410156 206.804688 181.796875 209.566406 181.542969 212.367188 C 181.183594 216.320312 184.292969 219.765625 188.257812 219.8125 C 188.300781 219.8125 188.34375 219.8125 188.382812 219.8125 C 189.117188 219.804688 189.855469 219.769531 190.589844 219.710938 C 190.953125 219.683594 191.320312 219.652344 191.6875 219.609375 C 191.832031 219.59375 191.976562 219.574219 192.121094 219.5625 C 192.101562 219.566406 192.078125 219.570312 192.054688 219.574219 C 191.582031 219.652344 192.867188 219.496094 192.128906 219.5625 C 193.492188 219.335938 194.839844 219.101562 196.179688 218.765625 C 197.578125 218.414062 198.953125 217.992188 200.308594 217.503906 C 200.910156 217.289062 201.496094 217.054688 202.085938 216.816406 C 202.09375 216.8125 202.101562 216.808594 202.109375 216.804688 C 202.195312 216.765625 202.566406 216.613281 202.730469 216.539062 C 203.03125 216.402344 203.335938 216.265625 203.632812 216.125 L 203.671875 216.109375 C 206.375 214.832031 208.863281 213.136719 211.007812 211.050781 C 213.257812 208.863281 215.246094 206.332031 216.890625 203.480469 L 217.472656 202.472656 C 222.753906 192.566406 223.136719 180.328125 217.546875 169.765625 Z M 186.710938 116.308594 C 186.3125 116.996094 186.292969 117.835938 186.652344 118.546875 C 190.164062 125.554688 191.234375 133.570312 189.46875 141.421875 C 187.292969 151.109375 180.707031 158.15625 173.714844 164.753906 C 170.507812 167.78125 167.246094 170.796875 164.507812 174.265625 C 164.5 174.269531 164.5 174.273438 164.496094 174.277344 C 164.488281 174.289062 164.472656 174.304688 164.453125 174.332031 C 164.460938 174.324219 164.464844 174.316406 164.472656 174.308594 C 164.378906 174.4375 164.117188 174.773438 164.117188 174.777344 C 163.980469 174.957031 163.847656 175.144531 163.714844 175.328125 C 163.386719 175.792969 163.066406 176.265625 162.757812 176.742188 C 162.207031 177.609375 161.691406 178.503906 161.226562 179.417969 C 160.214844 181.421875 159.476562 183.667969 159.003906 185.96875 C 158.105469 190.371094 158.429688 195.367188 160.304688 199.480469 C 161.160156 201.359375 162.15625 203.183594 163.238281 204.9375 C 163.765625 205.792969 164.324219 206.636719 164.910156 207.457031 C 165.023438 207.617188 165.136719 207.773438 165.253906 207.929688 C 165.253906 207.929688 165.367188 208.085938 165.464844 208.214844 C 165.472656 208.230469 165.492188 208.257812 165.53125 208.304688 C 165.539062 208.316406 165.546875 208.324219 165.554688 208.335938 C 165.566406 208.347656 165.578125 208.359375 165.585938 208.375 L 165.589844 208.378906 C 165.6875 208.507812 165.808594 208.660156 165.808594 208.660156 C 165.929688 208.808594 166.046875 208.957031 166.167969 209.101562 C 167.253906 210.417969 168.429688 211.664062 169.691406 212.8125 C 170.070312 213.160156 170.457031 213.496094 170.851562 213.824219 C 170.976562 213.929688 171.34375 214.214844 171.386719 214.253906 C 171.386719 214.253906 171.382812 214.253906 171.382812 214.253906 C 171.941406 214.671875 172.511719 215.074219 173.097656 215.457031 C 173.519531 215.734375 173.949219 215.996094 174.386719 216.246094 C 174.277344 211.332031 175.074219 206.484375 176.777344 201.722656 C 179.566406 193.941406 184.796875 186.441406 192.292969 179.394531 C 203.992188 168.386719 206.621094 150.792969 198.589844 136.882812 Z M 183.894531 136.640625 C 183.457031 141.28125 181.640625 145.914062 178.929688 149.851562 C 178.203125 150.902344 177.90625 151.289062 177.132812 152.21875 C 176.394531 153.101562 175.625 153.960938 174.835938 154.796875 C 173.246094 156.488281 171.570312 158.097656 169.886719 159.695312 C 162.929688 166.277344 155.890625 173.011719 153.324219 182.578125 C 153.316406 182.605469 153.308594 182.632812 153.300781 182.660156 C 153.09375 183.449219 151.933594 183.238281 152.015625 182.429688 C 152.507812 177.703125 153.976562 173 156.507812 168.617188 C 156.507812 168.617188 180.8125 138.039062 182.238281 124.058594 C 183.695312 127.90625 184.3125 132.234375 183.894531 136.640625"/></g><g fill="#032662"><g><g><path d="M 11.554688 -10.449219 L 14.382812 -13.003906 C 14.695312 -13.289062 14.671875 -13.75 14.316406 -14 C 13.046875 -14.871094 9.964844 -16.964844 5.425781 -20.285156 C 0.59375 -23.78125 -2.402344 -26.078125 -3.445312 -26.890625 C -3.714844 -27.089844 -4.039062 -27.058594 -4.257812 -26.863281 L -10.347656 -21.355469 C -10.589844 -21.136719 -10.652344 -20.816406 -10.480469 -20.53125 C -9.777344 -19.410156 -7.765625 -16.21875 -4.773438 -11.0625 C -1.949219 -6.1875 -0.175781 -2.914062 0.5625 -1.5625 C 0.773438 -1.183594 1.234375 -1.113281 1.546875 -1.398438 L 4.375 -3.957031 C 4.617188 -4.175781 4.679688 -4.496094 4.507812 -4.78125 C 4.1875 -5.28125 3.566406 -6.257812 2.714844 -7.683594 C 2.546875 -7.96875 2.609375 -8.289062 2.824219 -8.488281 L 7.199219 -12.441406 C 7.441406 -12.660156 7.765625 -12.691406 8.011719 -12.472656 C 9.34375 -11.480469 10.253906 -10.765625 10.746094 -10.417969 C 10.988281 -10.199219 11.3125 -10.230469 11.554688 -10.449219 Z M 1.210938 -11.683594 C 0.921875 -11.421875 0.417969 -11.492188 0.226562 -11.847656 C -0.222656 -12.585938 -0.710938 -13.417969 -1.195312 -14.296875 C -2.765625 -17.003906 -4.039062 -19.238281 -4.972656 -20.898438 C -5.183594 -21.277344 -4.722656 -21.695312 -4.34375 -21.46875 C -2.78125 -20.375 -0.6875 -18.882812 1.847656 -17.050781 C 2.648438 -16.457031 3.429688 -15.886719 4.140625 -15.386719 C 4.453125 -15.140625 4.496094 -14.65625 4.183594 -14.371094 Z M 1.210938 -11.683594" transform="translate(102.562 108.155)"/></g></g></g><g fill="#032662"><g><g><path d="M -4.300781 -24.320312 L -6.683594 -22.785156 L -6.703125 -22.816406 L -10.457031 -20.398438 C -10.757812 -20.203125 -10.828125 -19.769531 -10.605469 -19.488281 C -9.820312 -18.328125 -7.761719 -15.3125 -4.695312 -10.542969 C -1.625 -5.773438 0.285156 -2.625 1.015625 -1.429688 C 1.183594 -1.109375 1.589844 -1.023438 1.890625 -1.21875 L 5.097656 -3.28125 C 5.398438 -3.476562 5.484375 -3.878906 5.265625 -4.164062 C 4.636719 -5.078125 3.207031 -7.179688 1.117188 -10.367188 C 0.921875 -10.667969 1.007812 -11.074219 1.3125 -11.269531 L 3.285156 -12.539062 C 8.324219 -15.785156 8.648438 -18.898438 6.25 -22.625 C 3.847656 -26.351562 0.742188 -27.566406 -4.300781 -24.320312 Z M 1.46875 -15.480469 L -0.558594 -14.171875 C -0.859375 -13.980469 -1.265625 -14.066406 -1.460938 -14.367188 C -2.730469 -16.339844 -3.761719 -18.003906 -4.5625 -19.308594 C -4.753906 -19.609375 -4.667969 -20.015625 -4.394531 -20.191406 L -2.394531 -21.480469 C -0.121094 -22.945312 1.125 -21.070312 1.917969 -19.835938 C 2.710938 -18.605469 3.742188 -16.941406 1.46875 -15.480469 Z M 1.46875 -15.480469" transform="translate(117.47 94.649)"/></g></g></g><g fill="#032662"><g><g><path d="M -0.527344 -24.691406 L -3.117188 -23.542969 L -3.128906 -23.570312 L -7.210938 -21.757812 C -7.539062 -21.613281 -7.671875 -21.195312 -7.496094 -20.882812 C -6.898438 -19.613281 -5.328125 -16.320312 -3.023438 -11.136719 C -0.722656 -5.957031 0.683594 -2.550781 1.222656 -1.257812 C 1.339844 -0.917969 1.726562 -0.769531 2.054688 -0.914062 L 5.539062 -2.460938 C 5.867188 -2.605469 6.015625 -2.996094 5.839844 -3.308594 C 5.359375 -4.308594 4.269531 -6.605469 2.691406 -10.074219 C 2.542969 -10.402344 2.691406 -10.789062 3.019531 -10.933594 L 5.164062 -11.886719 C 10.644531 -14.324219 11.4375 -17.351562 9.636719 -21.402344 C 7.839844 -25.449219 4.953125 -27.128906 -0.527344 -24.691406 Z M 3.820312 -15.070312 L 1.617188 -14.09375 C 1.289062 -13.945312 0.902344 -14.09375 0.757812 -14.421875 C -0.195312 -16.566406 -0.960938 -18.367188 -1.550781 -19.78125 C -1.699219 -20.105469 -1.546875 -20.496094 -1.25 -20.625 L 0.921875 -21.59375 C 3.394531 -22.691406 4.335938 -20.648438 4.933594 -19.308594 C 5.527344 -17.96875 6.292969 -16.171875 3.820312 -15.070312 Z M 3.820312 -15.070312" transform="translate(132.4 84.916)"/></g></g></g><g fill="#032662"><g><g><path d="M 2.269531 -23.640625 L -2.117188 -22.792969 C -2.46875 -22.722656 -2.699219 -22.378906 -2.601562 -22.035156 C -2.300781 -20.664062 -1.511719 -17.097656 -0.4375 -11.53125 C 0.640625 -5.964844 1.242188 -2.332031 1.476562 -0.949219 C 1.511719 -0.589844 1.863281 -0.328125 2.214844 -0.394531 L 5.957031 -1.117188 C 6.308594 -1.1875 6.535156 -1.5625 6.433594 -1.90625 C 6.175781 -3.085938 5.574219 -5.855469 4.71875 -10.105469 C 4.648438 -10.457031 4.882812 -10.800781 5.234375 -10.871094 L 11.953125 -12.167969 C 12.304688 -12.234375 12.542969 -12.546875 12.476562 -12.898438 L 12.0625 -15.042969 C 11.992188 -15.394531 11.65625 -15.597656 11.304688 -15.527344 L 4.585938 -14.230469 C 4.234375 -14.160156 3.890625 -14.394531 3.820312 -14.746094 C 3.445312 -16.695312 3.167969 -18.304688 2.945312 -19.621094 C 2.875 -19.972656 3.109375 -20.316406 3.429688 -20.378906 L 11.8125 -22 C 12.164062 -22.066406 12.402344 -22.378906 12.335938 -22.730469 L 11.921875 -24.875 C 11.851562 -25.226562 11.515625 -25.425781 11.164062 -25.359375 Z M 2.269531 -23.640625" transform="translate(157.304 74.873)"/></g></g></g><g fill="#032662"><g><g><path d="M 15.570312 -0.5 L 19.378906 -0.621094 C 19.804688 -0.632812 20.085938 -1.003906 19.972656 -1.421875 C 19.566406 -2.910156 18.570312 -6.496094 17.253906 -11.964844 C 15.832031 -17.753906 15.027344 -21.445312 14.757812 -22.742188 C 14.683594 -23.066406 14.417969 -23.253906 14.121094 -23.242188 L 5.914062 -22.980469 C 5.589844 -22.96875 5.335938 -22.765625 5.28125 -22.4375 C 5.09375 -21.128906 4.5625 -17.394531 3.511719 -11.523438 C 2.515625 -5.980469 1.75 -2.339844 1.441406 -0.828125 C 1.355469 -0.402344 1.660156 -0.0546875 2.085938 -0.0664062 L 5.894531 -0.1875 C 6.222656 -0.199219 6.476562 -0.402344 6.53125 -0.730469 C 6.609375 -1.320312 6.769531 -2.464844 7.042969 -4.105469 C 7.097656 -4.433594 7.351562 -4.636719 7.644531 -4.644531 L 13.539062 -4.835938 C 13.863281 -4.84375 14.132812 -4.660156 14.175781 -4.332031 C 14.550781 -2.714844 14.785156 -1.582031 14.933594 -1 C 14.976562 -0.675781 15.242188 -0.488281 15.570312 -0.5 Z M 8.476562 -8.128906 C 8.085938 -8.117188 7.75 -8.496094 7.832031 -8.890625 C 7.96875 -9.742188 8.132812 -10.695312 8.332031 -11.679688 C 8.882812 -14.761719 9.359375 -17.285156 9.722656 -19.15625 C 9.804688 -19.582031 10.425781 -19.601562 10.570312 -19.183594 C 11.050781 -17.339844 11.6875 -14.851562 12.433594 -11.808594 C 12.660156 -10.839844 12.886719 -9.902344 13.109375 -9.058594 C 13.1875 -8.671875 12.90625 -8.269531 12.484375 -8.257812 Z M 8.476562 -8.128906" transform="translate(173.67 71.458)"/></g></g></g><g fill="#032662"><g><g><path d="M 9.816406 -1.894531 C 7.132812 -2.246094 7.480469 -5.128906 7.582031 -5.902344 L 8.769531 -14.917969 C 8.984375 -16.53125 9.542969 -18.527344 12.09375 -18.191406 C 14.292969 -17.902344 14.457031 -15.910156 14.40625 -14.765625 C 14.394531 -14.4375 14.617188 -14.144531 14.941406 -14.101562 L 18.753906 -13.601562 C 19.140625 -13.550781 19.476562 -13.835938 19.488281 -14.195312 C 19.699219 -17.519531 18.039062 -20.894531 12.480469 -21.625 C 6.667969 -22.394531 4.238281 -19.6875 3.699219 -15.585938 C 3.515625 -14.195312 3.523438 -13.273438 3.234375 -11.078125 C 2.941406 -8.847656 2.691406 -7.960938 2.511719 -6.570312 C 2.046875 -3.050781 3.515625 0.757812 9.429688 1.539062 C 14.953125 2.265625 17.402344 -0.105469 18.121094 -3.824219 C 18.207031 -4.207031 17.953125 -4.535156 17.597656 -4.582031 L 13.980469 -5.058594 C 13.65625 -5.101562 13.363281 -4.878906 13.289062 -4.558594 C 12.964844 -3.089844 12.078125 -1.597656 9.816406 -1.894531 Z M 9.816406 -1.894531" transform="translate(193.776 70.797)"/></g></g></g><g fill="#032662"><g><g><path d="M 22.4375 -14.246094 L 23.050781 -16.339844 C 23.152344 -16.683594 22.976562 -17.007812 22.632812 -17.109375 L 8.558594 -21.230469 C 8.214844 -21.332031 7.890625 -21.152344 7.789062 -20.808594 L 7.175781 -18.714844 C 7.074219 -18.371094 7.253906 -18.046875 7.597656 -17.945312 L 11.664062 -16.753906 C 12.007812 -16.65625 12.207031 -16.289062 12.105469 -15.945312 C 11.625 -14.1875 10.96875 -11.832031 10.117188 -8.921875 C 8.523438 -3.480469 7.394531 0.0273438 6.9375 1.351562 C 6.835938 1.695312 7.035156 2.058594 7.382812 2.160156 L 11.007812 3.222656 C 11.351562 3.324219 11.714844 3.125 11.816406 2.78125 C 12.148438 1.417969 13.089844 -2.144531 14.683594 -7.585938 C 15.535156 -10.496094 16.25 -12.832031 16.796875 -14.574219 C 16.894531 -14.917969 17.261719 -15.117188 17.605469 -15.015625 L 21.671875 -13.824219 C 22.015625 -13.726562 22.335938 -13.902344 22.4375 -14.246094 Z M 22.4375 -14.246094" transform="translate(211.428 73.017)"/></g></g></g><g fill="#032662"><g><g><path d="M 22.609375 -6.996094 C 24.117188 -10.210938 23.871094 -14.285156 18.441406 -16.832031 C 13.132812 -19.324219 10 -17.480469 8.242188 -13.734375 C 7.648438 -12.464844 7.378906 -11.585938 6.421875 -9.550781 C 5.480469 -7.542969 4.976562 -6.773438 4.382812 -5.503906 C 2.859375 -2.257812 3.121094 1.789062 8.519531 4.320312 C 13.859375 6.824219 16.992188 4.984375 18.75 1.234375 C 19.34375 -0.03125 19.585938 -0.925781 20.527344 -2.933594 C 21.480469 -4.96875 22.015625 -5.726562 22.609375 -6.996094 Z M 9.929688 1.164062 C 7.480469 0.015625 8.679688 -2.621094 9.011719 -3.332031 L 12.875 -11.5625 C 13.566406 -13.039062 14.703125 -14.769531 17.035156 -13.679688 C 19.484375 -12.53125 18.28125 -9.890625 17.949219 -9.183594 L 14.085938 -0.949219 C 13.394531 0.523438 12.289062 2.273438 9.929688 1.164062 Z M 9.929688 1.164062" transform="translate(228.592 77.936)"/></g></g></g><g fill="#032662"><g><g><path d="M 13.875 9.324219 C 14.199219 9.542969 14.652344 9.457031 14.816406 9.09375 C 15.226562 8.308594 16.054688 6.785156 17.34375 4.863281 C 18.707031 2.835938 18.480469 0.957031 17.554688 -0.648438 C 17.445312 -0.835938 17.59375 -1.054688 17.808594 -1.027344 C 19.824219 -0.8125 21.804688 -1.480469 23.222656 -3.589844 C 26.351562 -8.242188 24.011719 -11.304688 20.46875 -13.6875 L 18.277344 -15.160156 L 18.296875 -15.1875 L 14.589844 -17.675781 C 14.292969 -17.878906 13.867188 -17.769531 13.695312 -17.453125 C 12.941406 -16.273438 10.984375 -13.191406 7.824219 -8.484375 C 4.660156 -3.777344 2.523438 -0.777344 1.714844 0.367188 C 1.488281 0.648438 1.570312 1.054688 1.867188 1.253906 L 5.03125 3.382812 C 5.328125 3.582031 5.734375 3.5 5.90625 3.1875 C 6.5 2.246094 7.863281 0.101562 9.960938 -3.082031 C 10.164062 -3.378906 10.570312 -3.457031 10.867188 -3.257812 L 12.542969 -2.128906 C 14.328125 -0.929688 13.890625 0.777344 13.089844 1.964844 L 10.269531 6.15625 C 10.070312 6.457031 10.167969 6.835938 10.464844 7.035156 Z M 18.613281 -10.8125 C 19.453125 -10.246094 20.449219 -8.636719 18.976562 -6.445312 C 18.160156 -5.226562 16.417969 -3.6875 14.632812 -4.886719 L 12.792969 -6.125 C 12.496094 -6.324219 12.417969 -6.730469 12.617188 -7.027344 C 13.925781 -8.976562 15.042969 -10.582031 15.925781 -11.832031 C 16.125 -12.132812 16.53125 -12.210938 16.828125 -12.011719 Z M 18.613281 -10.8125" transform="translate(244.772 85.418)"/></g></g></g><g fill="#032662"><g><g><path d="M 21.589844 -1.636719 C 24.488281 -2.90625 26.597656 -3.753906 27.734375 -4.167969 C 28.167969 -4.347656 28.257812 -4.929688 27.921875 -5.238281 L 25.261719 -7.691406 C 25.046875 -7.890625 24.746094 -7.945312 24.5 -7.773438 C 23.710938 -7.304688 21.683594 -6.160156 18.496094 -4.488281 C 17.773438 -4.132812 17.097656 -3.785156 16.507812 -3.484375 C 16.308594 -3.359375 16.066406 -3.582031 16.148438 -3.816406 C 16.402344 -4.425781 16.695312 -5.128906 16.988281 -5.878906 C 18.398438 -9.1875 19.375 -11.300781 19.777344 -12.125 C 19.929688 -12.386719 19.847656 -12.683594 19.632812 -12.882812 L 16.972656 -15.332031 C 16.636719 -15.640625 16.066406 -15.503906 15.949219 -15.039062 C 15.601562 -13.894531 14.929688 -11.722656 13.898438 -8.726562 C 12.847656 -5.664062 12.078125 -3.582031 11.636719 -2.523438 C 11.511719 -2.195312 11.339844 -1.914062 11.117188 -1.628906 C 10.570312 -0.980469 9.773438 -0.0742188 8.738281 1.050781 C 7.277344 2.632812 6.191406 3.714844 5.59375 4.269531 C 5.351562 4.535156 5.367188 4.949219 5.628906 5.191406 L 8.386719 7.730469 C 8.648438 7.972656 9.0625 7.957031 9.304688 7.695312 C 9.8125 7.050781 10.800781 5.878906 12.257812 4.300781 C 13.296875 3.171875 14.136719 2.308594 14.738281 1.707031 C 15.003906 1.464844 15.273438 1.269531 15.589844 1.121094 C 16.628906 0.617188 18.621094 -0.339844 21.589844 -1.636719 Z M 21.589844 -1.636719" transform="translate(259.52 95.205)"/></g></g></g><g fill="#032662"><g><g><path d="M 18.21875 -10.078125 C 19.054688 -13.640625 17.902344 -16.613281 12.894531 -17.789062 C 8.109375 -18.914062 5.703125 -16.660156 4.839844 -13.867188 C 4.734375 -13.539062 4.917969 -13.203125 5.253906 -13.125 L 8.507812 -12.359375 C 8.816406 -12.289062 9.089844 -12.457031 9.191406 -12.757812 C 9.5 -13.710938 10.253906 -15.296875 12.148438 -14.851562 C 14.347656 -14.335938 14.183594 -12.523438 13.851562 -11.105469 C 12.820312 -6.707031 3.394531 -8.714844 1.964844 -2.621094 L 1.402344 -0.226562 C 1.332031 0.078125 1.523438 0.386719 1.828125 0.457031 L 14.492188 3.429688 C 14.796875 3.503906 15.078125 3.304688 15.148438 3 L 15.585938 1.132812 C 15.660156 0.828125 15.488281 0.554688 15.183594 0.480469 L 6.972656 -1.445312 C 6.613281 -1.53125 6.414062 -1.929688 6.582031 -2.273438 C 8.375 -5.902344 16.894531 -4.429688 18.21875 -10.078125 Z M 18.21875 -10.078125" transform="translate(152.257 310.341)"/></g></g></g><g fill="#032662"><g><g><path d="M 16.375 -12.757812 C 16.617188 -15.863281 15.148438 -19.128906 9.902344 -19.535156 C 4.773438 -19.929688 2.777344 -17.445312 2.5 -13.824219 C 2.402344 -12.601562 2.457031 -11.792969 2.304688 -9.828125 C 2.15625 -7.890625 1.980469 -7.101562 1.886719 -5.875 C 1.648438 -2.769531 3.113281 0.496094 8.332031 0.898438 C 13.488281 1.296875 15.484375 -1.1875 15.765625 -4.804688 C 15.859375 -6.03125 15.777344 -6.839844 15.929688 -8.808594 C 16.078125 -10.746094 16.28125 -11.53125 16.375 -12.757812 Z M 8.503906 -2.125 C 6.140625 -2.308594 6.308594 -4.847656 6.359375 -5.53125 L 6.394531 -5.984375 C 6.601562 -8.664062 11.667969 -10.425781 11.515625 -8.429688 L 11.261719 -5.152344 C 11.152344 -3.726562 10.785156 -1.949219 8.503906 -2.125 Z M 11.839844 -12.648438 C 11.632812 -9.96875 6.566406 -8.210938 6.71875 -10.203125 L 6.972656 -13.480469 C 7.082031 -14.90625 7.476562 -16.683594 9.726562 -16.507812 C 12.09375 -16.328125 11.925781 -13.789062 11.875 -13.105469 Z M 11.839844 -12.648438" transform="translate(169.805 314.366)"/></g></g></g><g fill="#032662"><g><g><path d="M 14.316406 -15.121094 C 14.035156 -18.769531 12.039062 -21.253906 6.90625 -20.855469 C 2.007812 -20.480469 0.394531 -17.601562 0.417969 -14.679688 C 0.414062 -14.335938 0.695312 -14.070312 1.035156 -14.097656 L 4.371094 -14.355469 C 4.683594 -14.378906 4.894531 -14.625 4.898438 -14.941406 C 4.90625 -15.945312 5.144531 -17.683594 7.082031 -17.832031 C 9.335938 -18.003906 9.730469 -16.230469 9.839844 -14.777344 C 10.1875 -10.273438 0.601562 -9.335938 1.082031 -3.09375 L 1.269531 -0.640625 C 1.292969 -0.328125 1.570312 -0.09375 1.882812 -0.117188 L 14.851562 -1.113281 C 15.164062 -1.140625 15.371094 -1.414062 15.347656 -1.726562 L 15.199219 -3.636719 C 15.175781 -3.949219 14.929688 -4.160156 14.617188 -4.136719 L 6.210938 -3.488281 C 5.839844 -3.460938 5.527344 -3.78125 5.585938 -4.15625 C 6.195312 -8.160156 14.761719 -9.335938 14.316406 -15.121094 Z M 14.316406 -15.121094" transform="translate(187.763 315.658)"/></g></g></g><g fill="#032662"><g><g><path d="M 11.832031 -17.132812 C 10.996094 -20.695312 8.640625 -22.84375 3.632812 -21.667969 C -1.152344 -20.546875 -2.308594 -17.457031 -1.835938 -14.570312 C -1.785156 -14.230469 -1.46875 -14.011719 -1.136719 -14.089844 L 2.121094 -14.855469 C 2.425781 -14.925781 2.597656 -15.203125 2.554688 -15.515625 C 2.40625 -16.507812 2.378906 -18.261719 4.269531 -18.707031 C 6.46875 -19.222656 7.128906 -17.527344 7.464844 -16.109375 C 8.496094 -11.710938 -0.835938 -9.316406 0.59375 -3.222656 L 1.15625 -0.828125 C 1.226562 -0.523438 1.535156 -0.332031 1.84375 -0.402344 L 14.503906 -3.375 C 14.808594 -3.445312 14.972656 -3.75 14.902344 -4.054688 L 14.464844 -5.921875 C 14.390625 -6.226562 14.117188 -6.398438 13.8125 -6.324219 L 5.601562 -4.398438 C 5.242188 -4.3125 4.882812 -4.582031 4.882812 -4.964844 C 4.871094 -9.011719 13.15625 -11.484375 11.832031 -17.132812 Z M 11.832031 -17.132812" transform="translate(205.706 314.184)"/></g></g></g></svg>