<svg xmlns="http://www.w3.org/2000/svg" version="1.1" xmlns:xlink="http://www.w3.org/1999/xlink" xmlns:svgjs="http://svgjs.com/svgjs" width="1920" height="1080" preserveAspectRatio="none" viewBox="0 0 1920 1080"><g mask="url(&quot;#SvgjsMask1014&quot;)" fill="none"><rect width="1920" height="1080" x="0" y="0" fill="rgba(11, 35, 67, 1)"></rect><path d="M1439.8 253.9 a207.67 207.67 0 1 0 415.34 0 a207.67 207.67 0 1 0 -415.34 0z" fill="rgba(11, 58, 121, 0.35)" class="triangle-float2"></path><path d="M633.55616110906 214.61292602793108L398.7637219516514 84.46535179030599 503.40858687143486 449.4053651853397z" fill="rgba(11, 58, 121, 0.35)" class="triangle-float3"></path><path d="M699.56 86.25 a242.14 242.14 0 1 0 484.28 0 a242.14 242.14 0 1 0 -484.28 0z" fill="rgba(11, 58, 121, 0.35)" class="triangle-float2"></path><path d="M159.6 596.99 a299.9 299.9 0 1 0 599.8 0 a299.9 299.9 0 1 0 -599.8 0z" fill="rgba(11, 58, 121, 0.35)" class="triangle-float3"></path></g><defs><mask id="SvgjsMask1014"><rect width="1920" height="1080" fill="#ffffff"></rect></mask><style>
            @keyframes float1 {
                0%{transform: translate(0, 0)}
                50%{transform: translate(-10px, 0)}
                100%{transform: translate(0, 0)}
            }

            .triangle-float1 {
                animation: float1 5s infinite;
            }

            @keyframes float2 {
                0%{transform: translate(0, 0)}
                50%{transform: translate(-5px, -5px)}
                100%{transform: translate(0, 0)}
            }

            .triangle-float2 {
                animation: float2 4s infinite;
            }

            @keyframes float3 {
                0%{transform: translate(0, 0)}
                50%{transform: translate(0, -10px)}
                100%{transform: translate(0, 0)}
            }

            .triangle-float3 {
                animation: float3 6s infinite;
            }
        </style></defs></svg>